<?xml version="1.0" encoding="UTF-8" standalone="no"?>
<!DOCTYPE svg PUBLIC "-//W3C//DTD SVG 1.1//EN" "http://www.w3.org/Graphics/SVG/1.1/DTD/svg11.dtd">
<!-- Created with Vectornator (http://vectornator.io/) -->
<svg height="100%" stroke-miterlimit="10" style="fill-rule:nonzero;clip-rule:evenodd;stroke-linecap:round;stroke-linejoin:round;" version="1.1" viewBox="0 0 140 140" width="100%" xml:space="preserve" xmlns="http://www.w3.org/2000/svg" xmlns:vectornator="http://vectornator.io" xmlns:xlink="http://www.w3.org/1999/xlink">
<defs>
<linearGradient gradientTransform="matrix(0.516048 0 0 0.543179 -29.7487 -0.167)" gradientUnits="userSpaceOnUse" id="LinearGradient" x1="116.14" x2="272.2" y1="77.79" y2="77.79">
<stop offset="0" stop-color="#04a039"/>
<stop offset="1" stop-color="#9dc11b"/>
</linearGradient>
<linearGradient gradientTransform="matrix(0.516048 0 0 0.543179 -29.7487 -0.167)" gradientUnits="userSpaceOnUse" id="LinearGradient_2" x1="187.63" x2="267.77" y1="77.79" y2="77.79">
<stop offset="0" stop-color="#04a039"/>
<stop offset="1" stop-color="#9dc11b"/>
</linearGradient>
</defs>
<clipPath id="ArtboardFrame">
<rect height="140" width="140" x="0" y="0"/>
</clipPath>
<g clip-path="url(#ArtboardFrame)" id="Untitled" vectornator:layerName="Untitled">
<g opacity="1">
<path d="M0.361225 136.663C0.361225 134.843 1.70278 133.486 3.51803 133.486C5.33328 133.486 6.67483 134.829 6.67483 136.663C6.67483 138.497 5.33674 139.833 3.51803 139.833C1.69932 139.833 0.361225 138.486 0.361225 136.663ZM5.57877 136.663C5.58578 135.778 5.08479 134.976 4.31016 134.633C3.53552 134.289 2.64039 134.471 2.04348 135.094C1.44657 135.717 1.26588 136.658 1.58595 137.476C1.90601 138.294 2.66355 138.828 3.5042 138.829C4.05794 138.852 4.59603 138.632 4.98954 138.221C5.38305 137.811 5.59651 137.246 5.57877 136.663Z" fill="#3c3c3b" fill-rule="nonzero" opacity="1" stroke="none"/>
<path d="M15.7753 135.771C15.7753 137.129 14.821 137.955 13.2789 137.955L11.9581 137.955L11.9581 139.735L10.8689 139.735L10.8689 133.548L13.2893 133.548C14.8072 133.577 15.7753 134.407 15.7753 135.771ZM14.6792 135.771C14.6792 134.996 14.1848 134.545 13.2305 134.545L11.9581 134.545L11.9581 136.994L13.2305 136.994C14.171 136.994 14.6654 136.547 14.6654 135.771L14.6792 135.771Z" fill="#3c3c3b" fill-rule="nonzero" opacity="1" stroke="none"/>
<path d="M24.2707 138.785L24.2707 139.746L19.876 139.746L19.876 133.559L24.1531 133.559L24.1531 134.519L20.9617 134.519L20.9617 136.124L23.7935 136.124L23.7935 137.067L20.9617 137.067L20.9617 138.767L24.2707 138.785Z" fill="#3c3c3b" fill-rule="nonzero" opacity="1" stroke="none"/>
<path d="M33.7169 133.577L33.7169 139.764L32.8213 139.764L29.6058 135.568L29.6058 139.746L28.527 139.746L28.527 133.559L29.4225 133.559L32.6554 137.737L32.6554 133.577L33.7169 133.577Z" fill="#3c3c3b" fill-rule="nonzero" opacity="1" stroke="none"/>
<path d="M48.5604 135.771C48.5604 137.129 47.6061 137.955 46.0675 137.955L44.7432 137.955L44.7432 139.735L43.6541 139.735L43.6541 133.548L46.0744 133.548C47.6061 133.577 48.5604 134.407 48.5604 135.771ZM47.4644 135.771C47.4644 134.996 46.9699 134.545 46.0156 134.545L44.7432 134.545L44.7432 136.994L46.0156 136.994C46.9699 136.994 47.4643 136.547 47.4644 135.771Z" fill="#3c3c3b" fill-rule="nonzero" opacity="1" stroke="none"/>
<path d="M52.1875 137.395C52.1769 136.736 52.4272 136.102 52.8784 135.645C53.3296 135.188 53.9411 134.949 54.5663 134.985C55.9493 134.985 56.952 135.983 56.952 137.395C56.952 138.807 55.9563 139.808 54.5663 139.808C53.9407 139.843 53.3293 139.603 52.8782 139.146C52.4272 138.688 52.177 138.054 52.1875 137.395ZM55.8975 137.395C55.8672 136.632 55.2608 136.035 54.5355 136.056C53.8103 136.076 53.2349 136.705 53.2433 137.469C53.2517 138.233 53.8408 138.848 54.5663 138.85C54.929 138.856 55.2775 138.702 55.5276 138.426C55.7778 138.149 55.9068 137.776 55.8836 137.395L55.8975 137.395Z" fill="#3c3c3b" fill-rule="nonzero" opacity="1" stroke="none"/>
<path d="M60.4719 139.28L60.8764 138.443C61.3447 138.745 61.883 138.906 62.4324 138.909C63.0928 138.909 63.3694 138.716 63.3694 138.388C63.3694 137.489 60.6033 138.337 60.6033 136.459C60.6033 135.568 61.364 134.985 62.5707 134.985C63.1528 134.976 63.7284 135.116 64.2476 135.393L63.8431 136.23C63.4571 135.986 63.0141 135.86 62.5638 135.866C61.9276 135.866 61.6267 136.088 61.6267 136.394C61.6267 137.347 64.3928 136.499 64.3928 138.344C64.3928 139.225 63.6218 139.8 62.3667 139.8C61.7014 139.816 61.0452 139.636 60.4719 139.28Z" fill="#3c3c3b" fill-rule="nonzero" opacity="1" stroke="none"/>
<path d="M67.809 139.28L68.2135 138.443C68.6818 138.745 69.22 138.906 69.7694 138.909C70.4333 138.909 70.7099 138.716 70.7099 138.388C70.7099 137.489 67.9438 138.337 67.9438 136.459C67.9438 135.568 68.7079 134.985 69.9112 134.985C70.4933 134.976 71.0689 135.116 71.5881 135.393L71.1836 136.23C70.7976 135.986 70.3546 135.86 69.9043 135.866C69.2681 135.866 68.9673 136.088 68.9673 136.394C68.9673 137.347 71.7334 136.499 71.7334 138.344C71.7334 139.225 70.9623 139.8 69.7072 139.8C69.0407 139.816 68.3832 139.636 67.809 139.28Z" fill="#3c3c3b" fill-rule="nonzero" opacity="1" stroke="none"/>
<path d="M75.516 133.602C75.5186 133.42 75.5915 133.246 75.7179 133.121C75.8444 132.997 76.0136 132.931 76.1868 132.94C76.3568 132.927 76.5246 132.988 76.6512 133.108C76.7778 133.228 76.8523 133.397 76.8576 133.577C76.8641 133.967 76.5692 134.288 76.1989 134.295C75.8285 134.302 75.5228 133.992 75.516 133.602ZM75.6578 135.04L76.695 135.04L76.695 139.746L75.6578 139.746L75.6578 135.04Z" fill="#3c3c3b" fill-rule="nonzero" opacity="1" stroke="none"/>
<path d="M85.8543 137.395C85.887 138.04 85.6594 138.67 85.2275 139.129C84.7956 139.589 84.1996 139.835 83.5861 139.808C83.0204 139.835 82.474 139.588 82.1028 139.138L82.1028 139.746L81.1243 139.746L81.1243 133.195L82.1615 133.195L82.1615 135.6C82.5294 135.182 83.052 134.954 83.593 134.974C84.2072 134.946 84.8039 135.194 85.2349 135.655C85.666 136.117 85.8911 136.749 85.8543 137.395ZM84.7893 137.395C84.759 136.63 84.1505 136.034 83.4239 136.056C82.6974 136.078 82.123 136.711 82.1352 137.476C82.1474 138.241 82.7417 138.854 83.4685 138.85C83.8318 138.857 84.1812 138.704 84.4321 138.427C84.683 138.151 84.8126 137.776 84.7893 137.395Z" fill="#3c3c3b" fill-rule="nonzero" opacity="1" stroke="none"/>
<path d="M89.7337 133.602C89.7354 133.42 89.8075 133.247 89.9334 133.122C90.0593 132.997 90.2282 132.931 90.401 132.94C90.5714 132.926 90.7397 132.986 90.8665 133.107C90.9934 133.227 91.0676 133.397 91.0718 133.577C91.0748 133.763 91.0046 133.943 90.8776 134.073C90.7506 134.204 90.5782 134.273 90.401 134.265C90.2282 134.274 90.0593 134.208 89.9334 134.083C89.8075 133.958 89.7354 133.785 89.7337 133.602ZM89.8755 135.04L90.9128 135.04L90.9128 139.746L89.8755 139.746L89.8755 135.04Z" fill="#3c3c3b" fill-rule="nonzero" opacity="1" stroke="none"/>
<path d="M95.3212 133.206L96.3585 133.206L96.3585 139.757L95.3212 139.757L95.3212 133.206Z" fill="#3c3c3b" fill-rule="nonzero" opacity="1" stroke="none"/>
<path d="M100.629 133.602C100.63 133.42 100.702 133.247 100.828 133.122C100.954 132.997 101.123 132.931 101.296 132.94C101.466 132.926 101.635 132.986 101.761 133.107C101.888 133.227 101.963 133.397 101.967 133.577C101.97 133.763 101.9 133.943 101.773 134.073C101.646 134.204 101.473 134.273 101.296 134.265C101.123 134.274 100.954 134.208 100.828 134.083C100.702 133.958 100.63 133.785 100.629 133.602ZM100.77 135.04L101.808 135.04L101.808 139.746L100.77 139.746L100.77 135.04Z" fill="#3c3c3b" fill-rule="nonzero" opacity="1" stroke="none"/>
<path d="M108.903 139.491C108.611 139.709 108.258 139.82 107.9 139.808C106.918 139.808 106.358 139.262 106.358 138.221L106.358 135.957L105.621 135.957L105.621 135.091L106.365 135.091L106.365 133.999L107.402 133.999L107.402 135.091L108.598 135.091L108.598 135.975L107.402 135.975L107.402 138.213C107.402 138.672 107.62 138.92 108.021 138.92C108.232 138.926 108.44 138.857 108.609 138.723L108.903 139.491Z" fill="#3c3c3b" fill-rule="nonzero" opacity="1" stroke="none"/>
<path d="M112.651 133.602C112.652 133.42 112.725 133.245 112.852 133.12C112.978 132.995 113.148 132.93 113.322 132.94C113.491 132.927 113.659 132.988 113.785 133.108C113.911 133.228 113.985 133.398 113.989 133.577C113.971 133.947 113.683 134.24 113.331 134.247C112.979 134.253 112.682 133.972 112.651 133.602ZM112.793 135.04L113.83 135.04L113.83 139.746L112.793 139.746L112.793 135.04Z" fill="#3c3c3b" fill-rule="nonzero" opacity="1" stroke="none"/>
<path d="M122.425 137.744L118.919 137.744C119.044 138.432 119.587 138.872 120.368 138.872C120.821 138.891 121.261 138.707 121.578 138.366L122.139 139.043C121.678 139.571 121.017 139.853 120.337 139.811C118.84 139.811 117.868 138.799 117.868 137.398C117.85 136.75 118.088 136.122 118.526 135.665C118.964 135.208 119.562 134.963 120.178 134.989C120.794 134.964 121.391 135.215 121.822 135.678C122.253 136.142 122.477 136.776 122.439 137.424C122.443 137.507 122.436 137.638 122.425 137.744ZM118.909 137.016L121.447 137.016C121.38 136.342 120.825 135.839 120.182 135.87C119.539 135.844 118.986 136.341 118.909 137.012L118.909 137.016Z" fill="#3c3c3b" fill-rule="nonzero" opacity="1" stroke="none"/>
<path d="M125.963 139.28L126.364 138.443C126.833 138.745 127.373 138.906 127.923 138.909C128.584 138.909 128.86 138.716 128.86 138.388C128.86 137.489 126.094 138.337 126.094 136.459C126.094 135.568 126.855 134.985 128.061 134.985C128.642 134.975 129.217 135.115 129.735 135.393L129.334 136.23C128.947 135.987 128.505 135.861 128.054 135.866C127.415 135.866 127.114 136.088 127.114 136.394C127.114 137.347 129.88 136.499 129.88 138.344C129.88 139.225 129.113 139.8 127.854 139.8C127.19 139.816 126.535 139.636 125.963 139.28Z" fill="#3c3c3b" fill-rule="nonzero" opacity="1" stroke="none"/>
<path d="M21.6256 105.146C22.5513 106.504 23.0265 108.145 22.9775 109.815C22.9775 112.363 22.1096 114.358 20.3739 115.802C18.6382 117.246 16.2513 117.974 13.2132 117.986L2.80576 117.986C2.13198 118.026 1.4709 117.781 0.969765 117.305C0.505992 116.793 0.2655 116.101 0.305903 115.394L0.305903 90.6465C0.2655 89.9402 0.505992 89.2481 0.969765 88.7358C1.4709 88.2601 2.13198 88.015 2.80576 88.0553L12.8121 88.0553C15.7672 88.0553 18.0861 88.7419 19.7688 90.1152C21.4515 91.4884 22.2917 93.4064 22.2894 95.8691C22.3218 97.3398 21.9049 98.7826 21.1 99.9852C20.7634 100.48 20.3644 100.925 19.9141 101.306C19.5906 101.593 19.413 102.022 19.434 102.466C19.4551 102.911 19.6723 103.319 20.0212 103.57C20.6384 103.994 21.1812 104.527 21.6256 105.146ZM5.40243 99.2064C5.40243 100.01 6.02164 100.662 6.78548 100.662L11.9719 100.662C15.5471 100.662 17.3347 99.261 17.3347 96.4586C17.3347 95.0441 16.8909 93.9972 16.0035 93.3178C15.116 92.6385 13.7722 92.2927 11.9719 92.2806L6.75436 92.2806C5.99723 92.2806 5.38078 92.9213 5.37131 93.7182L5.40243 99.2064ZM16.778 112.672C17.6378 111.964 18.0677 110.86 18.0677 109.36C18.0677 107.861 17.6309 106.742 16.7572 106.005C15.8813 105.277 14.5167 104.913 12.6634 104.913L6.75436 104.913C5.99053 104.913 5.37131 105.565 5.37131 106.369L5.37131 112.323C5.38078 113.12 5.99723 113.76 6.75436 113.76L12.6634 113.76C14.5352 113.734 15.9021 113.367 16.7642 112.661L16.778 112.672Z" fill="#3c3c3b" fill-rule="nonzero" opacity="1" stroke="none"/>
<path d="M42.0186 112.829C42.3204 113.258 42.4708 113.784 42.4439 114.317C42.4439 115.193 41.946 115.928 40.9502 116.523C39.9685 117.09 38.9231 117.525 37.8383 117.818C36.7602 118.131 35.6478 118.295 34.5294 118.306C31.3553 118.306 28.8416 117.344 26.9883 115.42C25.1351 113.496 24.2061 110.863 24.2015 107.522C24.1655 105.564 24.582 103.626 25.4151 101.874C26.1768 100.281 27.3595 98.9544 28.8209 98.0527C30.3343 97.1338 32.0564 96.6646 33.8033 96.6952C35.4274 96.6547 37.0313 97.0799 38.4434 97.9253C39.7634 98.7495 40.8277 99.9595 41.5069 101.408C42.269 103.056 42.646 104.871 42.6064 106.704C42.6064 107.917 42.0947 108.523 41.0712 108.523L29.1736 108.523C29.3326 110.479 29.857 111.915 30.7468 112.832C31.6365 113.749 32.9274 114.209 34.6193 114.212C35.391 114.225 36.1598 114.111 36.8979 113.873C37.659 113.604 38.4057 113.292 39.1349 112.938C39.944 112.487 40.5364 112.261 40.9122 112.261C41.3463 112.252 41.7581 112.463 42.0186 112.829ZM30.643 101.79C29.8224 102.698 29.3326 103.999 29.1736 105.695L38.2878 105.695C38.2348 103.97 37.8314 102.661 37.0777 101.769C36.3239 100.876 35.2751 100.43 33.9312 100.433C32.7017 100.373 31.5059 100.866 30.643 101.79Z" fill="#3c3c3b" fill-rule="nonzero" opacity="1" stroke="none"/>
<path d="M51.119 116.992C49.6398 116.135 48.4363 114.834 47.6614 113.254C46.0274 109.659 46.0491 105.473 47.7202 101.896C48.5317 100.278 49.7726 98.9423 51.2919 98.0527C52.9108 97.124 54.7319 96.6561 56.5752 96.6952C57.6461 96.699 58.7115 96.8558 59.7423 97.1611C60.7304 97.4413 61.6749 97.8704 62.5465 98.4348C63.404 99.0317 63.8362 99.7814 63.8362 100.688C63.8602 101.225 63.7116 101.756 63.4143 102.194C63.1547 102.563 62.7407 102.777 62.3044 102.766C61.9842 102.761 61.6681 102.689 61.3743 102.555C61.0419 102.406 60.7186 102.236 60.4062 102.045C59.8669 101.703 59.3 101.412 58.712 101.175C58.1179 100.951 57.4898 100.842 56.8587 100.855C55.1875 100.855 53.9024 101.429 53.0035 102.576C52.1045 103.724 51.655 105.373 51.655 107.522C51.655 109.645 52.1045 111.279 53.0035 112.425C53.9024 113.57 55.1875 114.144 56.8587 114.146C57.4706 114.158 58.0791 114.049 58.6532 113.826C59.2547 113.576 59.8402 113.285 60.4062 112.956C60.7382 112.739 61.0849 112.548 61.4435 112.385C61.7237 112.26 62.0244 112.194 62.3286 112.192C62.7623 112.193 63.1684 112.415 63.4178 112.789C63.7244 113.215 63.882 113.739 63.8638 114.274C63.8748 114.712 63.7694 115.146 63.5596 115.525C63.3106 115.926 62.9707 116.255 62.5707 116.483C61.6716 117.078 60.6925 117.529 59.6663 117.818C58.5632 118.143 57.4232 118.307 56.2778 118.306C54.4795 118.343 52.7026 117.89 51.119 116.992Z" fill="#3c3c3b" fill-rule="nonzero" opacity="1" stroke="none"/>
<path d="M86.1171 115.675C86.1181 116.323 85.8802 116.947 85.4532 117.414C85.0637 117.894 84.4964 118.172 83.8973 118.179C83.2721 118.163 82.678 117.889 82.2445 117.414L72.8052 108.414L72.8052 115.675C72.8513 116.382 72.5831 117.072 72.0791 117.542C71.5666 117.977 70.9221 118.203 70.2639 118.179C69.6116 118.206 68.9727 117.979 68.4694 117.542C67.982 117.062 67.7277 116.375 67.7779 115.675L67.7779 90.3263C67.7277 89.6258 67.982 88.9392 68.4694 88.4593C68.9727 88.0217 69.6116 87.795 70.2639 87.8224C70.9221 87.7977 71.5666 88.0238 72.0791 88.4593C72.5831 88.9294 72.8513 89.6191 72.8052 90.3263L72.8052 106.292L81.4493 97.5869C81.8765 97.1031 82.4745 96.8265 83.102 96.8226C84.3634 96.844 85.381 97.9151 85.4013 99.2428C85.3892 99.923 85.1116 100.568 84.6337 101.026L78.3028 107.213L85.3218 113.837C85.8235 114.302 86.1128 114.971 86.1171 115.675Z" fill="#3c3c3b" fill-rule="nonzero" opacity="1" stroke="none"/>
<path d="M107.319 112.829C107.618 113.259 107.767 113.785 107.741 114.317C107.741 115.193 107.244 115.928 106.251 116.523C105.269 117.09 104.224 117.525 103.139 117.818C102.062 118.131 100.951 118.295 99.8334 118.306C96.6593 118.306 94.1445 117.344 92.2889 115.42C90.4333 113.496 89.5055 110.863 89.5055 107.522C89.4701 105.564 89.8853 103.627 90.7157 101.874C91.4786 100.281 92.6625 98.9542 94.1249 98.0527C95.6373 97.1344 97.3581 96.6653 99.1039 96.6952C100.727 96.6551 102.33 97.0803 103.741 97.9253C105.061 98.7503 106.126 99.96 106.807 101.408C107.567 103.057 107.943 104.872 107.904 106.704C107.904 107.917 107.393 108.523 106.372 108.523L94.4707 108.523C94.632 110.479 95.1564 111.915 96.0439 112.832C96.9313 113.749 98.2222 114.209 99.9164 114.212C100.688 114.225 101.457 114.111 102.195 113.873C102.957 113.605 103.705 113.292 104.436 112.938C105.24 112.487 105.831 112.261 106.209 112.261C106.644 112.252 107.057 112.463 107.319 112.829ZM95.9436 101.79C95.123 102.698 94.632 103.999 94.4707 105.695L103.599 105.695C103.543 103.97 103.14 102.661 102.389 101.769C101.637 100.876 100.588 100.43 99.2422 100.433C98.009 100.369 96.8087 100.863 95.9436 101.79Z" fill="#3c3c3b" fill-rule="nonzero" opacity="1" stroke="none"/>
<path d="M128.044 99.21C129.199 100.626 129.711 102.369 129.711 105.23L129.711 115.675C129.748 116.368 129.506 117.046 129.043 117.542C128.544 118.018 127.884 118.263 127.211 118.222C126.531 118.261 125.864 118.017 125.354 117.542C124.88 117.052 124.628 116.373 124.663 115.675L124.663 105.528C124.663 103.912 124.372 102.74 123.795 102.001C123.217 101.263 119.21 100.182 117.225 102.205C116.316 103.133 116.261 104.593 116.261 106.209L116.261 115.671C116.295 116.369 116.043 117.049 115.569 117.538C115.059 118.013 114.392 118.257 113.712 118.219C113.038 118.26 112.377 118.015 111.876 117.538C111.417 117.041 111.176 116.364 111.212 115.671L111.212 102.369C111.617 97.4704 118.024 96.4223 120.52 96.4295C123.508 96.4368 126.889 97.7943 128.044 99.21Z" fill="#3c3c3b" fill-rule="nonzero" opacity="1" stroke="none"/>
<path d="M140.301 114.161C140.311 115.821 139.367 117.324 137.912 117.966C136.457 118.608 134.777 118.261 133.66 117.089C132.542 115.917 132.207 114.15 132.811 112.616C133.416 111.082 134.84 110.084 136.418 110.088C137.452 110.065 138.45 110.486 139.183 111.255C139.915 112.023 140.319 113.072 140.301 114.161ZM139.661 114.161C139.687 113.245 139.354 112.359 138.741 111.709C138.128 111.06 137.288 110.704 136.418 110.725C135.082 110.706 133.868 111.54 133.346 112.834C132.824 114.129 133.099 115.628 134.041 116.625C134.982 117.623 136.404 117.922 137.638 117.381C138.871 116.84 139.671 115.567 139.661 114.161ZM137.542 114.889L138.513 116.457L137.566 116.457L136.705 115.074L135.723 115.074L135.723 116.468L134.776 116.468L134.776 111.897L136.584 111.897C137.732 111.897 138.417 112.523 138.417 113.487C138.45 114.11 138.096 114.683 137.542 114.903L137.542 114.889ZM136.529 114.284C137.144 114.284 137.5 113.982 137.5 113.473C137.5 112.963 137.155 112.672 136.529 112.672L135.713 112.672L135.713 114.284L136.529 114.284Z" fill="#3c3c3b" fill-rule="nonzero" opacity="1" stroke="none"/>
<path d="M42.9522 70.9405L42.9522 13.2332L110.72-0.167L30.1851-0.167L30.1851 84.3407L110.72 84.3407L42.9522 70.9405Z" fill="url(#LinearGradient)" fill-rule="nonzero" opacity="1" stroke="none"/>
<path d="M108.433 80.1365L67.0774 72.1898L67.0774 12.4945L108.433 4.0372L108.433 80.1365Z" fill="url(#LinearGradient_2)" fill-rule="nonzero" opacity="1" stroke="none"/>
</g>
</g>
</svg>
